<?xml version="1.0" encoding="UTF-8" standalone="no"?>
<svg width="35px" height="35px" viewBox="0 0 35 35" version="1.1" xmlns="http://www.w3.org/2000/svg" xmlns:xlink="http://www.w3.org/1999/xlink" xmlns:sketch="http://www.bohemiancoding.com/sketch/ns">
    <!-- Generator: Sketch 3.3.2 (12043) - http://www.bohemiancoding.com/sketch -->
    <title>arrow-icon</title>
    <desc>Created with Sketch.</desc>
    <defs></defs>
    <g id="Page-1" stroke="none" stroke-width="1" fill="none" fill-rule="evenodd" sketch:type="MSPage">
        <g id="arrow-icon" sketch:type="MSArtboardGroup" fill="#F7F8FA">
            <g sketch:type="MSLayerGroup" transform="translate(2.000000, 2.000000)" id="Fill-28">
                <path d="M22.535,16.88 L16.879,22.54 C16.488,22.93 15.855,22.93 15.465,22.54 C15.074,22.15 15.074,21.51 15.465,21.12 L19.586,17 L9,17 C8.447,17 8,16.55 8,16 C8,15.45 8.447,15 9,15 L19.586,15 L15.465,10.88 C15.074,10.49 15.074,9.86 15.465,9.46 C15.855,9.07 16.488,9.07 16.879,9.46 L22.535,15.12 C22.775,15.36 22.85,15.69 22.795,16 C22.85,16.31 22.775,16.64 22.535,16.88 L22.535,16.88 Z M16,0 C7.163,0 0,7.16 0,16 C0,24.84 7.163,32 16,32 C24.837,32 32,24.84 32,16 C32,7.16 24.837,0 16,0 L16,0 Z" sketch:type="MSShapeGroup"></path>
            </g>
        </g>
    </g>
</svg>