<?xml version="1.0" encoding="UTF-8" standalone="no"?>
<svg width="35px" height="35px" viewBox="0 0 35 35" version="1.1" xmlns="http://www.w3.org/2000/svg" xmlns:xlink="http://www.w3.org/1999/xlink" xmlns:sketch="http://www.bohemiancoding.com/sketch/ns">
    <!-- Generator: Sketch 3.3.2 (12043) - http://www.bohemiancoding.com/sketch -->
    <title>cart-icon</title>
    <desc>Created with Sketch.</desc>
    <defs></defs>
    <g id="Page-1" stroke="none" stroke-width="1" fill="none" fill-rule="evenodd" sketch:type="MSPage">
        <g id="cart-icon" sketch:type="MSArtboardGroup" fill="#FFFFFF">
            <g sketch:type="MSLayerGroup" transform="translate(0.000000, 1.000000)" id="Fill-94">
                <path d="M10.9979998,26.5 C12.1019998,26.5 12.9979998,27.396 12.9979998,28.5 C12.9979998,29.604 12.1019998,30.5 10.9979998,30.5 C9.89399977,30.5 8.99799977,29.604 8.99799977,28.5 C8.99799977,27.396 9.89399977,26.5 10.9979998,26.5 L10.9979998,26.5 Z M6.99799977,28.5 C6.99799977,30.709 8.78899977,32.5 10.9979998,32.5 C13.2069998,32.5 14.9979998,30.709 14.9979998,28.5 C14.9979998,26.291 13.2069998,24.5 10.9979998,24.5 C8.78899977,24.5 6.99799977,26.291 6.99799977,28.5 L6.99799977,28.5 Z M8.99799977,22.5 C7.89399977,22.5 6.99799977,21.604 6.99799977,20.5 C6.99799977,20.5 29.9979998,18.5 29.9699998,18.597 C30.4799998,16.7 32.9769998,5.723 32.9979998,5.5 C33.0519998,4.95 32.5509998,4.5 31.9979998,4.5 L6.99799977,4.5 L6.99799977,2.5 L7.99799977,2.5 C8.55099977,2.5 8.99799977,2.053 8.99799977,1.5 C8.99799977,0.948 8.55099977,0.5 7.99799977,0.5 L1.99799977,0.5 C1.44499977,0.5 0.997999771,0.948 0.997999771,1.5 C0.997999771,2.053 1.44499977,2.5 1.99799977,2.5 L4.99799977,2.5 L4.99799977,20.5 C4.99799977,22.709 6.78899977,24.5 8.99799977,24.5 L31.9979998,24.5 C32.0289998,24.5 31.9979998,23.509 31.9979998,22.5 L8.99799977,22.5 L8.99799977,22.5 Z M22.9979998,26.5 C24.1019998,26.5 24.9979998,27.396 24.9979998,28.5 C24.9979998,29.604 24.1019998,30.5 22.9979998,30.5 C21.8939998,30.5 20.9979998,29.604 20.9979998,28.5 C20.9979998,27.396 21.8939998,26.5 22.9979998,26.5 L22.9979998,26.5 Z M18.9979998,28.5 C18.9979998,30.709 20.7889998,32.5 22.9979998,32.5 C25.2069998,32.5 26.9979998,30.709 26.9979998,28.5 C26.9979998,26.291 25.2069998,24.5 22.9979998,24.5 C20.7889998,24.5 18.9979998,26.291 18.9979998,28.5 L18.9979998,28.5 Z" sketch:type="MSShapeGroup"></path>
            </g>
        </g>
    </g>
</svg>