<?xml version="1.0" encoding="UTF-8" standalone="no"?>
<svg width="33px" height="33px" viewBox="0 0 33 33" version="1.1" xmlns="http://www.w3.org/2000/svg" xmlns:xlink="http://www.w3.org/1999/xlink" xmlns:sketch="http://www.bohemiancoding.com/sketch/ns">
    <!-- Generator: Sketch 3.3.2 (12043) - http://www.bohemiancoding.com/sketch -->
    <title>close-icon</title>
    <desc>Created with Sketch.</desc>
    <defs></defs>
    <g id="Page-1" stroke="none" stroke-width="1" fill="none" fill-rule="evenodd" sketch:type="MSPage">
        <g id="close-icon" sketch:type="MSArtboardGroup" transform="translate(-1.000000, -1.000000)" fill="#F7F8FA">
            <g sketch:type="MSLayerGroup" transform="translate(1.000000, 1.000000)" id="Fill-23">
                <path d="M22.3337813,20.8725 C22.737,21.2746875 22.737,21.9346875 22.3337813,22.336875 C21.9315938,22.7390625 21.2777813,22.7390625 20.8745625,22.336875 L16.5061875,17.964375 L12.106875,22.3678125 C11.7005625,22.77 11.042625,22.77 10.6363125,22.3678125 C10.2310313,21.9553125 10.2310313,21.2953125 10.6363125,20.893125 L15.035625,16.4896875 L10.66725,12.1275 C10.2640312,11.7253125 10.2640312,11.0653125 10.66725,10.663125 C11.0684063,10.2609375 11.7222187,10.2609375 12.1254375,10.663125 L16.4938125,15.035625 L20.926125,10.60125 C21.3324375,10.1990625 21.9893437,10.1990625 22.3956562,10.60125 C22.8009375,11.01375 22.8009375,11.6634375 22.3956562,12.0759375 L17.964375,16.5103125 L22.3337813,20.8725 L22.3337813,20.8725 Z M16.5,0 C7.38684375,0 0,7.38375 0,16.5 C0,25.61625 7.38684375,33 16.5,33 C25.6131562,33 33,25.61625 33,16.5 C33,7.38375 25.6131562,0 16.5,0 L16.5,0 Z" sketch:type="MSShapeGroup"></path>
            </g>
        </g>
    </g>
</svg>