<?xml version="1.0" encoding="UTF-8" standalone="no"?>
<svg width="25px" height="25px" viewBox="0 0 25 25" version="1.1" xmlns="http://www.w3.org/2000/svg" xmlns:xlink="http://www.w3.org/1999/xlink" xmlns:sketch="http://www.bohemiancoding.com/sketch/ns">
    <!-- Generator: Sketch 3.3.2 (12043) - http://www.bohemiancoding.com/sketch -->
    <title>trash-icon</title>
    <desc>Created with Sketch.</desc>
    <defs></defs>
    <g id="Page-1" stroke="none" stroke-width="1" fill="none" fill-rule="evenodd" sketch:type="MSPage">
        <g id="trash-icon" sketch:type="MSArtboardGroup" fill="#A0A7B4">
            <g sketch:type="MSLayerGroup" transform="translate(3.000000, 0.000000)" id="Fill-198-Copy">
                <path d="M5.38461538,11.9230769 C5.38461538,11.4984615 5.72923077,11.1538462 6.15384615,11.1538462 C6.57846154,11.1538462 6.92307692,11.4984615 6.92307692,11.9230769 L6.92307692,21.1538462 C6.92307692,21.5792308 6.57846154,21.9230769 6.15384615,21.9230769 C5.72923077,21.9230769 5.38461538,21.5792308 5.38461538,21.1538462 L5.38461538,11.9230769 L5.38461538,11.9230769 Z M9.23076923,11.9230769 C9.23076923,11.4984615 9.57538462,11.1538462 10,11.1538462 C10.4246154,11.1538462 10.7692308,11.4984615 10.7692308,11.9230769 L10.7692308,21.1538462 C10.7692308,21.5792308 10.4246154,21.9230769 10,21.9230769 C9.57538462,21.9230769 9.23076923,21.5792308 9.23076923,21.1538462 L9.23076923,11.9230769 L9.23076923,11.9230769 Z M13.0769231,11.9230769 C13.0769231,11.4984615 13.4215385,11.1538462 13.8461538,11.1538462 C14.2707692,11.1538462 14.6153846,11.4984615 14.6153846,11.9230769 L14.6153846,21.1538462 C14.6153846,21.5792308 14.2707692,21.9230769 13.8461538,21.9230769 C13.4215385,21.9230769 13.0769231,21.5792308 13.0769231,21.1538462 L13.0769231,11.9230769 L13.0769231,11.9230769 Z M1.53846154,21.9230769 C1.53846154,23.6223077 2.91615385,25 4.61538462,25 L15.3846154,25 C17.0838462,25 18.4615385,23.6223077 18.4615385,21.9230769 L18.4615385,9.61538462 L1.53846154,9.61538462 L1.53846154,21.9230769 L1.53846154,21.9230769 Z M12.3076923,3.46153846 L7.69230769,3.46153846 L7.69230769,2.69230769 C7.69230769,2.26692308 8.03692308,1.92307692 8.46153846,1.92307692 L11.5384615,1.92307692 C11.9630769,1.92307692 12.3076923,2.26692308 12.3076923,2.69230769 L12.3076923,3.46153846 L12.3076923,3.46153846 Z M18.4615385,3.46153846 L13.8461538,3.46153846 L13.8461538,1.92307692 C13.8461538,1.07384615 13.1569231,0.384615385 12.3076923,0.384615385 L7.69230769,0.384615385 C6.84307692,0.384615385 6.15384615,1.07384615 6.15384615,1.92307692 L6.15384615,3.46153846 L1.53846154,3.46153846 C0.689230769,3.46153846 0,4.15076923 0,5 L0,6.53846154 C0,7.38769231 0.688461538,8.07615385 1.53769231,8.07692308 L18.4630769,8.07692308 C19.3115385,8.07615385 20,7.38769231 20,6.53846154 L20,5 C20,4.15076923 19.3107692,3.46153846 18.4615385,3.46153846 L18.4615385,3.46153846 Z" sketch:type="MSShapeGroup"></path>
            </g>
        </g>
    </g>
</svg>